<?xml version="1.0" encoding="utf-8"?>
<!-- Generator: Adobe Illustrator 24.1.1, SVG Export Plug-In . SVG Version: 6.00 Build 0)  -->
<svg version="1.1" id="Layer_1" xmlns="http://www.w3.org/2000/svg" xmlns:xlink="http://www.w3.org/1999/xlink" x="0px" y="0px"
	 width="141.7px" height="46.9px" viewBox="0 0 141.7 46.9" style="enable-background:new 0 0 141.7 46.9;" xml:space="preserve">
<style type="text/css">
	.st0{fill:#FFFFFF;}
	.st1{fill:#FFFFFF;stroke:#FFFFFF;stroke-width:0.5;stroke-miterlimit:10;}
</style>
<path class="st0" d="M52.7,24.4h-5.5v-2.4h5.5l0.5-0.2c0.2-0.2,0.2-0.5,0-0.8c0,0,0,0,0,0h-3c-0.4,0-0.8,0-1.2-0.2
	c-0.7-0.3-1.3-0.9-1.6-1.6c-0.3-0.8-0.3-1.6,0-2.4c0.3-0.7,0.9-1.3,1.6-1.6c0.4-0.1,0.8-0.2,1.2-0.2h4.9v2.4h-4.9
	c-0.3,0-0.5,0.3-0.5,0.6l0,0c-0.1,0.2,0,0.3,0.1,0.5l0.5,0.2h2.5l1.2,0.2c0.3,0.1,0.6,0.3,0.9,0.5c0.3,0.3,0.5,0.6,0.7,0.9
	c0.1,0.4,0.2,0.8,0.2,1.2c0,0.4-0.1,0.8-0.2,1.2c-0.2,0.4-0.4,0.7-0.7,1C54.2,24.2,53.5,24.5,52.7,24.4z"/>
<path class="st0" d="M60.2,12.3c0,0.2,0,0.4-0.1,0.6l-0.4,0.5l-0.5,0.4c-0.4,0.2-0.9,0.2-1.3,0l-0.5-0.4c-0.1-0.1-0.2-0.3-0.3-0.5
	c-0.1-0.2-0.2-0.4-0.2-0.6c0-0.2,0.1-0.4,0.2-0.6c0-0.2,0.2-0.4,0.3-0.5l0.5-0.4c0.4-0.2,0.9-0.2,1.3,0l0.5,0.4l0.4,0.5
	C60.2,11.9,60.2,12.1,60.2,12.3z M59.7,24.4h-2.5v-9.6h2.5V24.4z"/>
<path class="st0" d="M64.4,24.4h-2.5v-9.6h0.5l0.8,1c0.4-0.4,0.9-0.7,1.4-0.8c0.5-0.3,1-0.4,1.5-0.4c0.6,0,1.1,0.2,1.6,0.4
	c0.5,0.2,1,0.5,1.4,0.9c0.4,0.4,0.7,0.9,0.9,1.4c0.2,0.5,0.3,1.1,0.4,1.6v5.5H68V19c0-0.2-0.1-0.4-0.2-0.6c-0.1-0.2-0.2-0.5-0.4-0.6
	l-0.5-0.4c-0.5-0.2-1-0.2-1.5,0c-0.5,0.2-0.8,0.5-1,1c-0.1,0.2-0.1,0.4-0.1,0.6L64.4,24.4z"/>
<path class="st0" d="M81.6,23.3c0,0.7-0.1,1.3-0.4,1.9c-0.2,0.6-0.6,1.1-1,1.5c-0.4,0.4-1,0.8-1.5,1c-0.6,0.3-1.2,0.4-1.9,0.5h-1.3
	v-2.5h1.3l0.9-0.2l0.7-0.4l0.5-0.6c0.1-0.2,0.2-0.4,0.2-0.6c-0.1,0.1-0.2,0.3-0.4,0.4l-0.6,0.2l-0.6,0.2h-0.6
	c-0.7,0-1.3-0.1-1.9-0.4c-0.6-0.2-1.1-0.6-1.5-1c-0.5-0.4-0.8-1-1.1-1.5c-0.3-0.7-0.4-1.4-0.4-2.1c0-0.7,0.1-1.4,0.4-2
	c0.3-0.6,0.6-1.2,1.1-1.6c0.5-0.4,1-0.8,1.5-1.1c0.6-0.2,1.3-0.3,1.9-0.4h0.9l0.9,0.4l0.8,0.5l0.6,0.6l1-1.2h0.5V23.3z M79.2,19.6
	c0-0.3,0-0.7-0.2-1c-0.1-0.3-0.3-0.6-0.5-0.8c-0.2-0.2-0.4-0.4-0.7-0.5c-0.3-0.2-0.6-0.3-0.9-0.3l-1,0.2c-0.3,0.1-0.5,0.3-0.7,0.5
	c-0.2,0.2-0.4,0.5-0.5,0.8c-0.1,0.4-0.2,0.7-0.2,1.1c0,0.4,0.1,0.7,0.2,1.1l0.5,0.8c0.4,0.5,1.1,0.7,1.7,0.6c0.3,0,0.6,0,0.9-0.2
	c0.3-0.1,0.5-0.3,0.7-0.5c0.2-0.2,0.4-0.5,0.5-0.8C79.1,20.3,79.2,20,79.2,19.6z"/>
<path class="st0" d="M90.8,23.3l-0.6,0.5l-0.7,0.4l-0.7,0.3h-0.8c-0.6,0-1.1-0.1-1.6-0.3c-1-0.4-1.8-1.2-2.3-2.3
	c-0.2-0.6-0.3-1.3-0.4-1.9v-5.2h2.5v5.3c0,0.3,0.1,0.6,0.2,0.9c0.1,0.2,0.2,0.4,0.4,0.6l0.5,0.4l0.7,0.2l0.7-0.2l0.6-0.5l0.4-0.6
	c0.1-0.3,0.1-0.5,0.1-0.8v-5.3h2.5v9.6h-0.5L90.8,23.3z"/>
<path class="st0" d="M96.8,24.4h-2.5V11.2h2.5V24.4z"/>
<path class="st0" d="M108.2,24.4h-0.6l-0.9-1.3l-0.7,0.5l-0.8,0.5l-0.9,0.3h-0.9c-0.6,0-1.3-0.1-1.9-0.3c-0.6-0.2-1.1-0.6-1.5-1
	c-0.5-0.5-0.8-1-1-1.6c-0.3-0.7-0.4-1.4-0.5-2.1c0-0.7,0.2-1.4,0.5-2.1c0.2-0.6,0.6-1,1-1.5c0.5-0.4,1-0.8,1.5-1.1
	c0.6-0.2,1.3-0.3,1.9-0.4l0.9,0.2l0.9,0.3c0.3,0.1,0.6,0.3,0.8,0.5c0.3,0.1,0.5,0.4,0.7,0.5l0.9-1.1h0.6V24.4z M105.7,19.6
	c0-0.3-0.1-0.7-0.2-1l-0.5-0.8l-0.8-0.5c-0.3-0.2-0.6-0.3-0.9-0.3l-0.9,0.2c-0.3,0.1-0.6,0.3-0.8,0.5c-0.2,0.2-0.4,0.5-0.5,0.8
	c-0.3,0.7-0.3,1.5,0,2.2c0.1,0.3,0.2,0.6,0.5,0.8l0.8,0.5h0.9c0.3,0,0.6,0,0.9-0.2l0.8-0.5l0.5-0.8
	C105.7,20.2,105.7,19.9,105.7,19.6z"/>
<path class="st0" d="M112.7,24.4h-2.5v-9.6h0.5l0.8,1.2c0.4-0.3,0.9-0.6,1.4-0.8c0.5-0.2,1-0.3,1.5-0.3h2.2v2.4h-2.2l-0.7,0.2
	c-0.2,0.1-0.5,0.2-0.5,0.4c-0.4,0.4-0.6,0.9-0.5,1.4V24.4z"/>
<path class="st0" d="M121,12.3c0,0.2-0.1,0.4-0.2,0.6c-0.1,0.2-0.2,0.3-0.4,0.5c-0.1,0.2-0.3,0.3-0.5,0.4c-0.6,0.3-1.4,0.1-1.8-0.4
	c-0.2-0.1-0.3-0.3-0.4-0.5c-0.1-0.2-0.1-0.4-0.1-0.6c0-0.2,0-0.4,0.1-0.6l0.4-0.5l0.5-0.4c0.4-0.2,0.9-0.2,1.3,0l0.5,0.4
	c0.2,0.2,0.3,0.3,0.4,0.5C120.9,11.9,121,12.1,121,12.3z M120.6,24.4h-2.5v-9.6h2.5V24.4z"/>
<path class="st0" d="M127.5,24.4c-0.6,0-1.1-0.1-1.6-0.3c-0.5-0.2-1-0.5-1.4-0.9c-0.4-0.4-0.7-0.9-0.9-1.4c-0.3-0.5-0.4-1.1-0.4-1.7
	v-2.8H122V15h1.2v-3.8h2.5V15h3.6v2.4h-3.6v2.8c0,0.2,0,0.5,0.1,0.7c0.2,0.4,0.6,0.8,1,1l0.7,0.2h1.8v2.4L127.5,24.4z"/>
<path class="st0" d="M133.3,28.1v-2.5h1.4l0.6-0.2l0.6-0.3l0.5-0.5c0.2-0.2,0.3-0.3,0.4-0.5l-0.8,0.4h-0.8c-0.6,0-1.1-0.1-1.6-0.3
	c-1-0.4-1.9-1.2-2.3-2.3c-0.3-0.6-0.4-1.3-0.4-1.9v-5.1h2.5v5.3c0,0.3,0,0.6,0.1,0.9c0.1,0.2,0.3,0.5,0.5,0.6
	c0.1,0.2,0.4,0.3,0.5,0.4l0.7,0.2l0.7-0.2l0.5-0.5l0.5-0.6c0.1-0.3,0.1-0.5,0.1-0.8v-5.3h2.5v8.4c0,0.7-0.1,1.3-0.4,1.9
	c-0.3,0.6-0.6,1.1-1.1,1.5c-0.4,0.5-1,0.8-1.5,1c-0.6,0.3-1.2,0.5-1.9,0.5L133.3,28.1z"/>
<g>
	<path class="st0" d="M33.6,15.2L17.3,5.9L1.2,15.2v18.8L6.6,37V18.3l10.7-6.3l10.8,6.3V37l5.4-3.1L33.6,15.2L33.6,15.2z"/>
	<path class="st0" d="M22.9,33.9L17.3,37l-5.3-3.1v6.3l5.4,3.1l5.4-3.1V33.9z"/>
	<path class="st0" d="M25.9,20.7c-4.9-2.3-10.1-2.3-14.5-2h-0.2v3.3l5-0.7l-3.9,11.5l4.9,2.9l5-2.9L18.8,21
		C21.3,21.1,26,20.7,25.9,20.7z"/>
</g>
<path class="st1" d="M59.2,30.4c0,0.3-0.1,0.6-0.2,0.9c-0.1,0.3-0.3,0.5-0.5,0.7l-0.7,0.5l-0.9,0.2L56,32.6
	c-0.3-0.1-0.5-0.3-0.7-0.5c-0.2-0.2-0.4-0.5-0.5-0.7c-0.3-0.6-0.3-1.3,0-1.9c0.1-0.3,0.3-0.5,0.5-0.7l0.7-0.5
	c0.3-0.2,0.6-0.3,0.9-0.3l0.9,0.2l0.7,0.5c0.2,0.2,0.4,0.5,0.5,0.7C59.1,29.8,59.2,30.1,59.2,30.4z M58,30.4c0-0.2,0-0.4-0.1-0.5
	l-0.2-0.4l-0.4-0.3h-0.9l-0.4,0.3l-0.3,0.4c0,0.2-0.1,0.4-0.1,0.5c0,0.1,0.1,0.3,0.1,0.5l0.3,0.4l0.4,0.3h0.9l0.4-0.3
	c0.1-0.1,0.2-0.2,0.2-0.4C58,30.8,58,30.6,58,30.4z"/>
<path class="st1" d="M48.3,32.6l-1.2,0.7v-6.7h3.1l0.5,0.3c0.2,0.1,0.3,0.2,0.5,0.4l0.4,0.5c0.2,0.2,0.2,0.4,0.3,0.6
	c0.2,0.5,0.1,1.1-0.1,1.5c-0.3,0.5-0.7,1-1.3,1.3l-0.9,0.2h-1.3V32.6z M48.3,27.8v2.5H50l0.4-0.3l0.3-0.4c0.1-0.1,0.1-0.3,0.1-0.5
	c0-0.2,0-0.4-0.1-0.5l-0.3-0.4L50,28h-1.7V27.8z"/>
<path class="st1" d="M72,32.6L70.8,32v-6H72V32.6z"/>
<path class="st1" d="M66.9,30.4c0,0.3-0.1,0.6-0.2,0.9c-0.1,0.3-0.3,0.5-0.5,0.7l-0.7,0.5c-0.6,0.2-1.2,0.2-1.7,0L63,32.1
	c-0.2-0.2-0.4-0.4-0.5-0.7c-0.2-0.6-0.2-1.3,0-1.9c0.1-0.3,0.3-0.5,0.5-0.7l0.7-0.5c0.3-0.2,0.6-0.3,0.9-0.3l0.8,0.2
	c0.3,0.1,0.5,0.3,0.7,0.5c0.3,0.2,0.4,0.4,0.5,0.7C66.9,29.8,66.9,30.1,66.9,30.4z M65.8,30.4c0-0.2,0-0.4-0.1-0.5l-0.3-0.4L65,29.3
	c-0.3-0.1-0.6-0.1-0.8,0l-0.4,0.3l-0.3,0.4c-0.1,0.2-0.1,0.4-0.1,0.5c0,0.2,0,0.3,0.1,0.5l0.3,0.4l0.4,0.3H65
	c0.2-0.1,0.3-0.1,0.4-0.3c0.1-0.2,0.2-0.2,0.3-0.4C65.7,30.8,65.8,30.6,65.8,30.4z"/>
</svg>
